<?xml version="1.0" encoding="UTF-8" standalone="no"?>
<svg
   xmlns:dc="http://purl.org/dc/elements/1.1/"
   xmlns:cc="http://creativecommons.org/ns#"
   xmlns:rdf="http://www.w3.org/1999/02/22-rdf-syntax-ns#"
   xmlns:svg="http://www.w3.org/2000/svg"
   xmlns="http://www.w3.org/2000/svg"
   xmlns:sodipodi="http://sodipodi.sourceforge.net/DTD/sodipodi-0.dtd"
   xmlns:inkscape="http://www.inkscape.org/namespaces/inkscape"
   width="24"
   height="24"
   viewBox="0 0 24 24"
   version="1.1"
   preserveAspectRatio="xMidYMid"
   id="svg893"
   sodipodi:docname="aws-s3-simple-storage-service-seeklogo.com.svg"
   inkscape:version="1.0.1 (3bc2e813f5, 2020-09-07)">
  <metadata
     id="metadata899">
    <rdf:RDF>
      <cc:Work
         rdf:about="">
        <dc:format>image/svg+xml</dc:format>
        <dc:type
           rdf:resource="http://purl.org/dc/dcmitype/StillImage" />
        <dc:title></dc:title>
      </cc:Work>
    </rdf:RDF>
  </metadata>
  <defs
     id="defs897" />
  <sodipodi:namedview
     pagecolor="#ffffff"
     bordercolor="#666666"
     borderopacity="1"
     objecttolerance="10"
     gridtolerance="10"
     guidetolerance="10"
     inkscape:pageopacity="0"
     inkscape:pageshadow="2"
     inkscape:window-width="2560"
     inkscape:window-height="1346"
     id="namedview895"
     showgrid="false"
     inkscape:zoom="18.967742"
     inkscape:cx="42.685779"
     inkscape:cy="17.881049"
     inkscape:window-x="-11"
     inkscape:window-y="-11"
     inkscape:window-maximized="1"
     inkscape:current-layer="svg893" />
  <g
     id="g891"
     transform="matrix(0.07756247,0,0,0.07756247,2.0720038,1.642e-8)">
    <path
       d="M 20.624,53.686 0,64 v 181.02 l 20.624,10.254 0.124,-0.149 V 53.828 l -0.124,-0.142"
       fill="#8c3123"
       id="path867" />
    <path
       d="M 131,229 20.624,255.274 V 53.686 L 131,79.387 V 229"
       fill="#e05243"
       id="path869" />
    <path
       d="m 81.178,187.866 46.818,5.96 0.294,-0.678 0.263,-76.77 -0.557,-0.6 -46.818,5.874 v 66.214"
       fill="#8c3123"
       id="path871" />
    <path
       d="m 127.996,229.295 107.371,26.035 0.169,-0.269 -0.003,-201.195 -0.17,-0.18 -107.367,25.996 v 149.613"
       fill="#8c3123"
       id="path873" />
    <path
       d="m 174.827,187.866 -46.831,5.96 v -78.048 l 46.831,5.874 v 66.214"
       fill="#e05243"
       id="path875" />
    <path
       d="m 174.827,89.631 -46.831,8.535 -46.818,-8.535 46.759,-12.256 46.89,12.256"
       fill="#5e1f18"
       id="path877" />
    <path
       d="m 174.827,219.801 -46.831,-8.591 -46.818,8.591 46.761,13.053 46.888,-13.053"
       fill="#f2b0a9"
       id="path879" />
    <path
       d="m 81.178,89.631 46.818,-11.586 0.379,-0.117 V 0.313 L 127.996,0 81.178,23.413 v 66.218"
       fill="#8c3123"
       id="path881" />
    <path
       d="M 174.827,89.631 127.996,78.045 V 0 l 46.831,23.413 v 66.218"
       fill="#e05243"
       id="path883" />
    <path
       d="M 127.996,309.428 81.173,286.023 v -66.217 l 46.823,11.582 0.689,0.783 -0.187,75.906 -0.502,1.351"
       fill="#8c3123"
       id="path885" />
    <path
       d="m 127.996,309.428 46.827,-23.405 v -66.217 l -46.827,11.582 v 78.04"
       fill="#e05243"
       id="path887" />
    <path
       d="M 235.367,53.686 256,64 v 181.02 l -20.633,10.31 V 53.686"
       fill="#e05243"
       id="path889" />
  </g>
</svg>
