<?xml version="1.0" encoding="UTF-8" standalone="no"?>
<svg
   xmlns:dc="http://purl.org/dc/elements/1.1/"
   xmlns:cc="http://creativecommons.org/ns#"
   xmlns:rdf="http://www.w3.org/1999/02/22-rdf-syntax-ns#"
   xmlns:svg="http://www.w3.org/2000/svg"
   xmlns="http://www.w3.org/2000/svg"
   xmlns:sodipodi="http://sodipodi.sourceforge.net/DTD/sodipodi-0.dtd"
   xmlns:inkscape="http://www.inkscape.org/namespaces/inkscape"
   width="24"
   height="24"
   version="1.1"
   id="svg845"
   sodipodi:docname="jfrog-ar21.svg"
   inkscape:version="1.0.1 (3bc2e813f5, 2020-09-07)">
  <metadata
     id="metadata851">
    <rdf:RDF>
      <cc:Work
         rdf:about="">
        <dc:format>image/svg+xml</dc:format>
        <dc:type
           rdf:resource="http://purl.org/dc/dcmitype/StillImage" />
        <dc:title></dc:title>
      </cc:Work>
    </rdf:RDF>
  </metadata>
  <defs
     id="defs849" />
  <sodipodi:namedview
     pagecolor="#ffffff"
     bordercolor="#666666"
     borderopacity="1"
     objecttolerance="10"
     gridtolerance="10"
     guidetolerance="10"
     inkscape:pageopacity="0"
     inkscape:pageshadow="2"
     inkscape:window-width="2560"
     inkscape:window-height="1346"
     id="namedview847"
     showgrid="false"
     inkscape:zoom="9"
     inkscape:cx="60"
     inkscape:cy="30"
     inkscape:window-x="-11"
     inkscape:window-y="-11"
     inkscape:window-maximized="1"
     inkscape:current-layer="svg845" />
  <path
     d="m 10.655661,15.631873 -1.2680899,0.352921 c 0.1104914,0.319821 0.1986053,0.893725 0.1986053,1.66577 v 3.79495 h 1.4233396 v -4.015002 c 0.264807,-0.31982 0.551527,-0.474601 0.860623,-0.474601 0.153849,0 0.275997,0.03263 0.408401,0.110491 l 0.386021,-1.312847 c -0.220518,-0.09931 -0.31982,-0.121216 -0.529614,-0.121216 -0.15385,0 -0.342199,0.03263 -0.463413,0.08858 -0.264808,0.132404 -0.595817,0.430312 -0.805145,0.717031 0,-0.319819 -0.0774,-0.573438 -0.209794,-0.805144 z M 5.7525302,13.756776 H 5.598681 v 7.678482 H 7.0765669 V 18.036585 H 8.9414078 V 16.768493 H 7.0765669 v -1.765071 h 2.3277868 l 0.088584,-0.673206 A 23.478341,23.478341 0 0 1 5.7530001,13.75631 Z m -3.4532183,8.704144 0.6839308,0.794421 c 0.6620183,-0.264806 1.4895408,-0.860624 1.7100585,-1.808895 0.077386,-0.309097 0.099303,-0.508169 0.099303,-1.511453 V 13.7675 H 3.3030621 v 6.332531 c 0,0.827524 -0.032635,1.136155 -0.1435926,1.42334 -0.1435927,0.319821 -0.4848585,0.694653 -0.8606237,0.937082 z M 15.726163,18.566666 c 0,1.345949 -0.264807,1.919854 -0.871813,1.919854 -0.275996,0 -0.584627,-0.153849 -0.71703,-0.463413 -0.110493,-0.286719 -0.17716,-0.772043 -0.17716,-1.434062 0,-0.562716 0.05501,-0.960394 0.143592,-1.268092 0.110491,-0.352921 0.386022,-0.573439 0.72822,-0.573439 0.253619,0 0.474602,0.110492 0.607005,0.298374 0.198605,0.264808 0.28672,0.761322 0.28672,1.522644 z m 0.871813,2.206573 c 0.463414,-0.551527 0.673208,-1.224734 0.673208,-2.19585 0,-0.915636 -0.187418,-1.544553 -0.617729,-2.074635 -0.463413,-0.573438 -1.059229,-0.849435 -1.831274,-0.849435 -1.456439,0 -2.42709,1.180444 -2.42709,2.967894 0,1.78745 0.960394,2.934793 2.42709,2.934793 0.827524,0.01119 1.367861,-0.298375 1.7716,-0.783233 z m 4.037379,-3.177222 c 0,0.518425 -0.309097,0.805145 -0.860623,0.805145 -0.496514,0 -0.827523,-0.231706 -0.827523,-0.805145 0,-0.529615 0.309098,-0.838246 0.838246,-0.838246 0.529148,0 0.849435,0.309097 0.849435,0.838246 z m 2.504481,-1.213545 -0.580431,-0.933353 c -0.326347,0.309097 -0.72822,0.48486 -1.118904,0.48486 -0.17716,0 -0.275997,-0.02192 -0.662019,-0.121216 A 3.2821193,3.2821193 0 0 0 19.807833,15.66917 c -1.37905,0 -2.272774,0.750599 -2.272774,1.919854 0,0.838245 0.3753,1.367861 1.158531,1.577655 -0.31982,0.07739 -0.662018,0.242429 -0.815867,0.430311 -0.110491,0.132404 -0.165506,0.309098 -0.165506,0.518427 a 1.0256622,1.0256622 0 0 0 0.110493,0.463412 c 0.07739,0.121215 0.177161,0.220518 0.309097,0.275996 0.253619,0.09931 0.662018,0.165505 1.291403,0.177161 l 0.595816,0.01119 c 0.386022,0.02192 0.584628,0.08858 0.738943,0.165506 0.143593,0.08858 0.253618,0.286719 0.253618,0.508168 0,0.22145 -0.132403,0.441502 -0.342198,0.573439 -0.187416,0.132403 -0.496513,0.187416 -0.893724,0.187416 -0.65083,0 -1.01494,-0.242429 -1.01494,-0.694653 0,-0.198605 0.02192,-0.242428 0.0662,-0.363644 h -1.297928 c -0.05501,0.110493 -0.121216,0.264808 -0.121216,0.573438 0,0.386023 0.143592,0.717032 0.441501,1.003752 0.484859,0.474601 1.279747,0.607004 2.041069,0.607004 0.838245,0 1.655045,-0.198605 2.129181,-0.728219 0.298374,-0.326348 0.430312,-0.694654 0.430312,-1.169256 0,-0.508169 -0.143593,-0.893724 -0.463413,-1.213544 -0.3753,-0.363644 -0.805146,-0.496515 -1.632668,-0.508169 l -0.76132,-0.01119 c -0.143594,0 -0.231707,-0.05501 -0.231707,-0.132403 0,-0.153849 0.198605,-0.286719 0.562715,-0.463413 l 0.209794,0.01119 c 1.146878,0 1.986055,-0.705842 1.986055,-1.687682 0,-0.375298 -0.110491,-0.662017 -0.31982,-0.926825 0.177161,0.02192 0.231707,0.03263 0.363645,0.03263 0.375298,0 0.673206,-0.121215 0.981839,-0.41959 z M 5.377231,7.0815804 C 3.6121599,7.5118922 2.4093373,8.3613271 2.4093373,9.3319771 c 0,0.6070056 0.463413,1.1585319 1.224734,1.5888429 C 3.4023647,10.557177 3.2811506,10.159499 3.2811506,9.7622889 3.2923385,8.7585387 4.0755729,7.8205238 5.377231,7.0815804 Z M 23.999994,10.88772 c 0,-0.640107 -0.397211,-1.2247338 -1.059229,-1.7100592 0.05501,0.1986063 0.09931,0.3972116 0.09931,0.5958169 0,1.8205503 -2.548304,3.3870163 -6.167027,4.0373793 a 11.753157,11.753157 0 0 0 1.268558,0.0662 c 3.232701,-0.01119 5.858396,-1.345949 5.858396,-2.989806 z M 21.915102,9.8946928 c 0,-0.6732082 -0.573438,-1.2914026 -1.555743,-1.7981725 0.231707,0.2759956 0.352922,0.5734384 0.352922,0.8825352 0,1.6224115 -3.44203,2.9347925 -7.700393,2.9347925 -4.2471741,0 -7.7003923,-1.312847 -7.7003923,-2.9347925 a 1.1562011,1.1562011 0 0 1 0.1655041,-0.595816 c -0.6839299,0.4522233 -1.0699517,0.970649 -1.0699517,1.5226421 0,1.7543484 3.9161653,3.1772214 8.7488989,3.1772214 4.832734,0 8.760089,-1.445252 8.760089,-3.1888773 z m -3.817328,-0.08858 C 16.310325,10.952989 10.816504,11.394956 8.4556162,9.9166042 6.601965,8.7580716 7.2420719,6.9156092 1.9356676,2.8777637 1.2410151,2.348149 2.0680714,1.7854335 2.5864972,2.1495436 3.1049229,2.5136536 2.6307842,2.6017673 3.6788273,3.6498077 5.7968201,5.7678003 5.7749087,3.8596022 6.1059178,4.5868901 6.8117601,6.0983434 8.3563136,7.6209854 8.3563136,7.6209854 9.9120568,8.6359254 11.147514,8.8564421 13.442666,7.301165 14.899106,6.3193272 14.303289,8.8676318 17.867,7.0251685 19.168658,6.3519614 19.113646,6.8046518 20.437682,4.9621893 20.98921,4.200868 22.036784,5.5468165 20.846083,5.734233 20.371481,5.811629 19.566337,6.3300499 19.223671,7.1468496 18.727158,8.3715838 18.936952,9.2760313 18.098241,9.8056457 Z M 8.1908094,6.6950925 C 7.7493079,6.4964872 7.2863619,5.746355 7.109202,5.448446 7.6057153,4.9635879 7.4075761,4.1570444 7.1203898,3.7164757 6.8443933,3.2749748 6.5026614,3.3966556 6.1385511,2.9882555 5.7632519,2.5798554 6.2821437,1.5210922 6.7562794,2.3374262 c 1.7715992,3.0560072 2.9455163,1.7874497 4.3907666,1.5991007 1.390239,-0.1771598 2.625696,0.5846275 3.000995,-1.566466 0.0662,-0.3529211 0.408401,-0.430312 0.441501,0.1435927 0.03263,0.5846276 0.253619,1.996778 1.01494,2.1734716 0.761321,0.1874165 1.37905,-0.1771598 1.555743,-0.3752992 0.176693,-0.1981392 0.275996,-0.1771598 0.35292,0.3263471 0.0774,0.4965135 0.275997,1.191633 1.34595,0.4195892 2.195848,-1.566466 1.566466,-2.1734716 2.427089,-2.5814055 0.484859,-0.2317064 1.257835,0.5184256 0.143593,1.0816075 -1.588845,0.8051449 -1.754348,1.7981722 -2.758099,2.4270902 -1.68768,1.059229 -1.169255,0.044287 -3.883531,-0.3421989 -1.04804,-0.1435926 -1.379049,1.01494 -2.195849,0.6839308 C 10.727457,5.5547427 9.4150765,5.7090581 8.1903425,6.6904298 Z M 14.071118,1.0353013 c 0.0662,0.4634129 0.143592,0.4522238 0.309096,0.4848585 0.165505,0.044289 0.3753,-0.2205173 0.3753,-0.4634128 0.01119,-0.25361831 -0.110492,-0.4084001 -0.352922,-0.39721104 -0.253617,0.0111888 -0.342197,0.13240368 -0.326346,0.37529914 z m 8.163338,0.827523 c 0.198606,0.1874164 0.72822,0.066201 0.849436,-0.077391 0.31982,-0.3529212 0.326346,-0.5627158 0.165503,-0.80514507 -0.165503,-0.23170643 -0.508168,-0.1986055 -0.849434,0.0550127 -0.341266,0.2536184 -0.275997,0.7282203 -0.165505,0.8275234 z m -0.143592,2.3389762 c -0.165505,0.2205173 -0.17716,0.3860219 -0.05501,0.508169 0.132403,0.1324036 0.397211,0.2424293 0.584627,0.099303 0.187417,-0.1538493 0.187417,-0.3752992 0.03263,-0.5627156 -0.1655,-0.1986053 -0.386018,-0.1986053 -0.562711,-0.04429 z M 5.3487926,1.4441676 c 0.253618,0.077391 0.3752991,0.3198202 0.5846271,0.044289 C 6.0439121,1.3560539 6.0546348,1.1686375 5.9115082,0.970032 5.8229244,0.84881739 5.4033391,0.76023743 5.2275774,0.93739686 5.0518167,1.1145568 5.2163896,1.4008098 5.3487926,1.4455659 Z M 0.17479204,1.2903183 C 0.63820507,1.5770374 0.93611401,2.0073494 1.2936964,1.6166653 1.4149115,1.4842617 1.5585042,1.2530214 1.3048842,0.78914239 1.1174696,0.44694415 0.51046393,0.31454048 0.30113495,0.44694415 0.08061817,0.56815876 -0.18372347,1.0646725 0.17992083,1.28519 Z M 4.444345,3.486168 C 4.5879376,3.6400172 4.8415556,3.6297606 4.9958709,3.541181 5.1394635,3.452601 5.117086,3.2213609 4.9739589,3.0227554 c -0.088584,-0.1212147 -0.3529205,-0.1874164 -0.5296144,0 -0.1766939,0.1874165 -0.099303,0.3529211 5e-7,0.4634126 z"
     fill="#41bf47"
     id="path843"
     style="stroke-width:0.46621" />
</svg>
