<?xml version="1.0" encoding="UTF-8" standalone="no"?>
<svg
   xmlns:dc="http://purl.org/dc/elements/1.1/"
   xmlns:cc="http://creativecommons.org/ns#"
   xmlns:rdf="http://www.w3.org/1999/02/22-rdf-syntax-ns#"
   xmlns:svg="http://www.w3.org/2000/svg"
   xmlns="http://www.w3.org/2000/svg"
   xmlns:xlink="http://www.w3.org/1999/xlink"
   xmlns:sodipodi="http://sodipodi.sourceforge.net/DTD/sodipodi-0.dtd"
   xmlns:inkscape="http://www.inkscape.org/namespaces/inkscape"
   height="24"
   viewBox="2.59 0 2.1762746 2.1504"
   width="24"
   version="1.1"
   id="svg993"
   sodipodi:docname="jira-seeklogo.com.svg"
   inkscape:version="1.0.1 (3bc2e813f5, 2020-09-07)">
  <metadata
     id="metadata999">
    <rdf:RDF>
      <cc:Work
         rdf:about="">
        <dc:format>image/svg+xml</dc:format>
        <dc:type
           rdf:resource="http://purl.org/dc/dcmitype/StillImage" />
        <dc:title></dc:title>
      </cc:Work>
    </rdf:RDF>
  </metadata>
  <defs
     id="defs997">
    <linearGradient
       inkscape:collect="always"
       xlink:href="#a"
       id="linearGradient1008"
       gradientUnits="userSpaceOnUse"
       gradientTransform="matrix(1,0,0,-1,0,264)"
       x1="102.4"
       y1="218.63"
       x2="56.150002"
       y2="172.39" />
  </defs>
  <sodipodi:namedview
     pagecolor="#ffffff"
     bordercolor="#666666"
     borderopacity="1"
     objecttolerance="10"
     gridtolerance="10"
     guidetolerance="10"
     inkscape:pageopacity="0"
     inkscape:pageshadow="2"
     inkscape:window-width="2560"
     inkscape:window-height="1346"
     id="namedview995"
     showgrid="false"
     inkscape:zoom="13.3376"
     inkscape:cx="53.631523"
     inkscape:cy="26.285596"
     inkscape:window-x="-11"
     inkscape:window-y="-11"
     inkscape:window-maximized="1"
     inkscape:current-layer="svg993" />
  <linearGradient
     id="a"
     gradientTransform="matrix(1,0,0,-1,0,264)"
     gradientUnits="userSpaceOnUse"
     x1="102.4"
     x2="56.150002"
     y1="218.63"
     y2="172.39">
    <stop
       offset=".18"
       stop-color="#0052cc"
       id="stop981" />
    <stop
       offset="1"
       stop-color="#2684ff"
       id="stop983" />
  </linearGradient>
  <linearGradient
     id="b"
     x1="114.65"
     x2="160.81"
     xlink:href="#a"
     y1="85.769997"
     y2="131.92" />
  <g
     id="g1006"
     transform="matrix(0.01004379,0,0,0.00971551,2.5899767,-0.0129373)">
    <path
       d="M 214.06,105.73 117.67,9.34 108.33,0 35.77,72.56 2.59,105.73 a 8.89,8.89 0 0 0 0,12.54 l 66.29,66.29 39.45,39.44 72.55,-72.56 1.13,-1.12 32.05,-32 a 8.87,8.87 0 0 0 0,-12.59 z M 108.33,145.12 75.21,112 108.33,78.88 141.44,112 Z"
       fill="#2684ff"
       id="path987" />
    <path
       d="M 108.33,78.88 A 55.75,55.75 0 0 1 108.09,0.27 l -72.47,72.44 39.44,39.44 z"
       fill="url(#a)"
       id="path989"
       style="fill:url(#linearGradient1008)" />
    <path
       d="m 141.53,111.91 -33.2,33.21 a 55.77,55.77 0 0 1 0,78.86 L 181,151.35 Z"
       fill="url(#b)"
       id="path991"
       style="fill:url(#b)" />
  </g>
</svg>
