<?xml version="1.0" encoding="UTF-8" standalone="no"?>
<svg
   xmlns:dc="http://purl.org/dc/elements/1.1/"
   xmlns:cc="http://creativecommons.org/ns#"
   xmlns:rdf="http://www.w3.org/1999/02/22-rdf-syntax-ns#"
   xmlns:svg="http://www.w3.org/2000/svg"
   xmlns="http://www.w3.org/2000/svg"
   xmlns:sodipodi="http://sodipodi.sourceforge.net/DTD/sodipodi-0.dtd"
   xmlns:inkscape="http://www.inkscape.org/namespaces/inkscape"
   viewBox="-169 285.9 24 24"
   width="24"
   height="24"
   version="1.1"
   id="svg1092"
   sodipodi:docname="rabbitmq-icon.svg"
   inkscape:version="1.0.1 (3bc2e813f5, 2020-09-07)">
  <metadata
     id="metadata1098">
    <rdf:RDF>
      <cc:Work
         rdf:about="">
        <dc:format>image/svg+xml</dc:format>
        <dc:type
           rdf:resource="http://purl.org/dc/dcmitype/StillImage" />
        <dc:title></dc:title>
      </cc:Work>
    </rdf:RDF>
  </metadata>
  <defs
     id="defs1096" />
  <sodipodi:namedview
     pagecolor="#ffffff"
     bordercolor="#666666"
     borderopacity="1"
     objecttolerance="10"
     gridtolerance="10"
     guidetolerance="10"
     inkscape:pageopacity="0"
     inkscape:pageshadow="2"
     inkscape:window-width="2560"
     inkscape:window-height="1346"
     id="namedview1094"
     showgrid="false"
     inkscape:zoom="16.28125"
     inkscape:cx="32"
     inkscape:cy="27.086372"
     inkscape:window-x="-11"
     inkscape:window-y="-11"
     inkscape:window-maximized="1"
     inkscape:current-layer="svg1092" />
  <path
     d="m -145.99287,295.49812 h -7.97528 a 0.72167279,0.6825 0 0 1 -0.72167,-0.6825 v -7.86112 c 0,-0.585 -0.49685,-1.0545 -1.11503,-1.0545 h -2.84902 c -0.61858,0 -1.11502,0.46987 -1.11502,1.0545 v 7.80825 c 0,0.40762 -0.34656,0.73575 -0.77798,0.73575 l -2.61468,0.009 c -0.43102,0 -0.7871,-0.32775 -0.77798,-0.73575 l 0.0186,-7.81688 c 0,-0.585 -0.49684,-1.0545 -1.11502,-1.0545 h -2.84903 c -0.61857,0 -1.11502,0.46988 -1.11502,1.0545 v 22.00575 c 0,0.51375 0.44014,0.93938 0.99329,0.93938 h 22.0134 c 0.54324,0 0.99329,-0.41625 0.99329,-0.93938 v -12.5235 a 0.98734354,0.93375 0 0 0 -0.99329,-0.93937 z m -3.73922,8.26013 a 1.2966319,1.22625 0 0 1 -1.29346,1.22287 h -2.24908 a 1.2966319,1.22625 0 0 1 -1.29306,-1.22287 v -2.127 a 1.2966319,1.22625 0 0 1 1.29306,-1.22288 h 2.24908 a 1.2966319,1.22625 0 0 1 1.29346,1.22288 z"
     fill="#ff6600"
     id="path1090"
     style="stroke-width:0.385612" />
</svg>
